<svg width="20" height="20" viewBox="0 0 20 20" fill="none" xmlns="http://www.w3.org/2000/svg">
<g id="016-facebook-logo 1" clip-path="url(#clip0_4_4175)">
<g id="Group">
<path id="Vector" d="M19.3609 2.65436C18.5611 0.0174679 16.1279 0.418146 13.8601 0.427013C10.7293 0.43918 6.36115 -0.646858 3.56578 1.2162C1.64683 2.49516 0.888059 5.2763 0.436651 7.38218C-0.147044 10.1047 -0.18107 13.0498 0.551411 15.7441C1.05138 17.5834 2.71091 19.9974 4.82308 19.6177C6.18091 19.8872 7.54442 19.915 8.94267 19.8451C10.7166 19.7567 12.7969 19.7239 14.4783 19.1318C14.5274 19.1144 14.5682 19.0833 14.6047 19.0475C15.1187 18.9807 15.6336 18.9008 16.15 18.7937C18.6416 18.2771 19.1179 15.9156 19.413 13.7287C19.9109 10.0366 20.4607 6.27851 19.3609 2.65436ZM2.03741 5.90402C2.03019 5.94165 2.02998 5.97949 2.03431 6.01682C1.97595 6.31449 1.9179 6.61216 1.86707 6.90994C1.85831 6.92819 1.84727 6.94345 1.8414 6.96541C1.69168 7.53065 1.55703 8.09703 1.43319 8.66422C1.42948 8.66701 1.42525 8.66917 1.42164 8.67206C1.53878 7.90865 1.67838 7.22741 1.81253 6.6964C1.87996 6.42966 1.96018 6.14354 2.05019 5.85133C2.04658 5.86948 2.04081 5.88577 2.03741 5.90402ZM4.10895 15.9378C4.0673 15.8583 4.02801 15.7773 3.98378 15.6998C4.05771 15.7271 4.12947 15.7576 4.2 15.7904C4.35641 15.9843 4.50561 16.1835 4.64914 16.3869C4.4588 16.2483 4.28001 16.0972 4.10895 15.9378ZM6.43466 4.02384C6.40765 3.94558 6.38166 3.86701 6.35723 3.78793C6.52498 3.71998 6.69233 3.6511 6.86029 3.58377C6.72574 3.73534 6.58468 3.88268 6.43466 4.02384ZM6.97021 5.62903C7.14673 5.42054 7.31222 5.20639 7.46925 4.98697C7.51029 4.95738 7.55225 4.92882 7.59246 4.8982C7.43512 5.13462 7.28778 5.37899 7.14436 5.62635C7.08631 5.62717 7.02826 5.62841 6.97021 5.62903ZM8.92132 12.2367C8.93153 11.984 8.94813 11.7325 8.94648 11.4773C8.94586 11.3899 8.91555 11.3261 8.87286 11.2781C8.94411 11.2751 9.01742 11.2764 9.08712 11.2703C9.01165 11.5894 8.96112 11.9123 8.92132 12.2367ZM14.121 10.0378C13.7138 10.0565 13.6371 10.5299 13.8799 10.7343C13.6372 11.5019 13.668 12.3168 13.63 13.1429C13.5715 14.4162 13.6054 15.6904 13.6763 16.9624C12.4533 17.0558 11.2255 17.1766 9.99736 17.3025C10.0832 16.6638 9.93735 15.8838 9.92683 15.3377C9.9024 14.0675 9.84218 12.7623 10.0326 11.5019C10.0585 11.3305 10.0308 11.1708 9.92446 11.0495C10.2119 10.8411 10.1726 10.4175 9.80279 10.2712C9.15641 10.0157 8.26741 10.1077 7.51008 10.1444C7.35965 9.39908 7.36387 8.56132 7.52163 7.81997C8.06965 7.78832 8.61736 7.74027 9.16425 7.69923C9.46563 7.67665 9.5842 7.41847 9.52935 7.20236C9.53904 7.18524 9.55131 7.16916 9.55833 7.15101C9.73722 6.68609 9.76196 6.20282 9.9057 5.72533C10.1659 4.86046 10.9036 4.14757 11.5995 3.62089C12.9172 2.62322 14.6003 2.31266 16.1998 2.57362C16.2699 3.33497 16.3876 4.08808 16.4867 4.84499C16.2863 4.83097 16.0827 4.83881 15.9021 4.84211C15.3066 4.85314 14.7159 4.95161 14.121 4.97109C13.8488 4.98006 13.6105 5.19443 13.615 5.47705C13.6218 5.90845 13.7245 6.34862 13.7733 6.78147L13.7734 6.78167C13.598 7.03944 13.7101 7.47611 14.121 7.489C14.5885 7.50364 15.0554 7.51395 15.5231 7.50075C15.7638 7.49395 16.0649 7.48755 16.3456 7.43816C16.2622 7.82915 16.2687 8.25292 16.254 8.64608C16.2381 9.07078 16.2383 9.50363 16.2568 9.93513C16.088 9.9438 15.9191 9.95586 15.7517 9.96349C15.2081 9.98834 14.6646 10.0131 14.121 10.0378ZM16.3362 11.6992C16.32 11.5381 16.3115 11.3786 16.2918 11.2165C16.2764 11.0881 16.1894 10.9863 16.0829 10.9282C16.1687 10.9337 16.2545 10.9401 16.3403 10.943C16.3451 10.9817 16.3476 11.021 16.3527 11.0594C16.3652 11.1512 16.4144 11.2198 16.481 11.2665C16.431 11.4107 16.3813 11.5551 16.3362 11.6992ZM18.1356 14.0293C18.0118 14.9441 17.8051 15.6461 17.4859 16.1867C17.7242 15.4408 17.9464 14.694 18.1475 13.9445C18.1436 13.9722 18.1392 14.0012 18.1356 14.0293Z" fill="#FFD4E4"/>
</g>
</g>
<defs>
<clipPath id="clip0_4_4175">
<rect width="20" height="20" fill="white"/>
</clipPath>
</defs>
</svg>
