<svg width="20" height="20" viewBox="0 0 20 20" fill="none" xmlns="http://www.w3.org/2000/svg">
<g id="017-instagram-logo 1" clip-path="url(#clip0_4_4178)">
<g id="Group">
<path id="Vector" d="M11.4643 9.18853C11.1861 8.61017 10.2912 7.93657 9.71635 8.41244C8.88598 8.41645 8.39895 9.37684 8.44544 10.1794C8.51695 11.4133 9.86826 11.9043 10.9131 11.4776C11.8516 11.0943 11.842 9.97286 11.4643 9.18853ZM10.1944 11.2032C10.3278 11.1831 10.461 11.1435 10.5901 11.0842C10.6046 11.0963 10.62 11.1065 10.6355 11.1171C10.4937 11.1717 10.3443 11.1997 10.1944 11.2032Z" fill="#FFD4E4"/>
<path id="Vector_2" d="M14.1876 6.56131C14.1942 6.35838 14.1825 6.15501 14.1684 5.96453C14.1594 5.84264 14.0735 5.74112 13.9448 5.74079C13.6963 5.74004 12.8961 5.64317 12.623 5.87254C12.5467 5.78879 12.3829 5.81837 12.3733 5.96464C12.3355 6.5352 12.3098 7.10532 12.3057 7.67718C12.305 7.76657 12.3702 7.863 12.4613 7.88164C12.5766 7.90515 12.6967 7.92367 12.8172 7.93342C12.8253 7.94686 12.8352 7.95954 12.8473 7.97091C13.1271 8.2368 13.6765 8.03386 14.0028 7.98305C14.074 7.97189 14.1389 7.89735 14.1553 7.83039C14.2559 7.42311 14.2793 6.97325 14.1876 6.56131Z" fill="#FFD4E4"/>
<path id="Vector_3" d="M14.454 9.58027C14.4388 9.45393 14.3414 9.38351 14.2408 9.36953C14.3692 9.23496 14.251 8.95023 14.021 9.00494C13.6985 9.08154 13.3682 9.08306 13.0432 9.01859C12.9236 8.99487 12.8393 9.07288 12.8159 9.16345C12.7765 9.21124 12.7569 9.27614 12.7774 9.35447C13.2928 11.3262 12.2383 12.9296 10.1533 12.9683C8.19544 13.0047 6.9424 11.5104 7.34058 9.60963C7.35444 9.54354 7.34599 9.45523 7.2877 9.40962C7.2877 9.40962 7.28023 9.40269 7.27069 9.39402C7.3123 9.32153 7.31501 9.2263 7.24317 9.14634C7.23667 9.13918 7.22898 9.13377 7.22193 9.12737C7.2371 9.09151 7.24891 9.05316 7.25292 9.00949C7.26083 8.92357 7.17491 8.85109 7.09463 8.8512C7.00914 8.8513 6.93926 8.87698 6.87067 8.91025C6.85182 8.90223 6.83178 8.89562 6.80913 8.89269C6.38484 8.83733 5.9949 8.95944 5.57234 8.99129C5.45955 8.99974 5.36312 9.0797 5.36377 9.19986C5.36767 9.83413 5.37049 10.4684 5.37591 11.1027C5.37482 11.1445 5.38739 11.177 5.40473 11.2048C5.42358 12.114 5.69911 13.0694 6.07843 13.6704C6.8659 14.9181 8.73869 14.8183 10.0279 14.8912C11.1294 14.9534 13.4879 15.2538 14.1555 14.0723C14.8344 12.871 14.6109 10.8915 14.454 9.58027ZM13.2426 13.1323C13.2392 13.1292 13.2362 13.1252 13.2325 13.122C13.2904 12.9124 13.3402 12.7014 13.3805 12.4879C13.3913 12.4595 13.4022 12.4311 13.4132 12.4027C13.4085 12.4415 13.4025 12.48 13.3972 12.5185C13.3429 12.7225 13.2914 12.9271 13.2426 13.1323ZM12.8068 14.3528C12.9088 14.2997 13.0064 14.2349 13.0976 14.1557L13.126 14.1651C13.1489 14.1727 13.1702 14.1753 13.1911 14.1755C13.2048 14.1948 13.2221 14.211 13.2415 14.2248C13.0999 14.2978 12.9436 14.3536 12.777 14.3956C12.7889 14.3823 12.7993 14.3688 12.8068 14.3528ZM6.94391 9.50041C6.91369 9.60714 6.89028 9.71223 6.87046 9.81625C6.86406 9.74896 6.85605 9.68157 6.84608 9.61407C6.88606 9.56857 6.90437 9.50432 6.89538 9.44483C6.91759 9.45057 6.93958 9.45708 6.96017 9.46574C6.95453 9.47701 6.9476 9.4873 6.94391 9.50041ZM10.0498 14.4469C10.1991 14.4372 10.3486 14.4278 10.498 14.417C10.4983 14.4336 10.499 14.4495 10.5022 14.466C10.4108 14.4607 10.3234 14.4562 10.2416 14.4531C10.1795 14.4505 10.1148 14.4488 10.0498 14.4469Z" fill="#FFD4E4"/>
<path id="Vector_4" d="M17.0798 3.19399C16.0032 1.83921 14.5417 0.801346 12.886 0.293195C11.1886 -0.227848 9.24845 0.0123583 7.57188 0.495264C4.23694 1.45609 1.68188 4.11505 0.784224 7.44945C0.444446 8.71127 0.37597 9.96734 0.537408 11.1834C0.537408 11.1884 0.535457 11.1923 0.535783 11.1976C0.558319 11.4691 0.60805 11.7254 0.674793 11.9723C1.0124 13.5139 1.72371 14.9763 2.74467 16.2829C4.50835 18.5402 7.54457 20.4469 10.4849 19.7562C10.4832 19.9001 10.5966 20.0451 10.772 19.9869C14.2853 18.8229 17.5187 16.8162 18.93 13.2431C20.2776 9.83234 19.3045 5.99315 17.0798 3.19399ZM0.935694 11.026C0.90579 10.7695 0.887046 10.5124 0.880653 10.2552C0.884228 10.2809 0.888021 10.3066 0.891921 10.3323C0.906548 10.5726 0.932226 10.8102 0.962889 11.0459C0.954113 11.0389 0.944578 11.0327 0.935694 11.026ZM1.93401 9.82085C1.92307 9.85932 1.91191 9.89756 1.90053 9.93581C1.89739 9.8604 1.89403 9.78499 1.89338 9.70936C1.90768 9.65942 1.92166 9.60947 1.93563 9.55941C1.93401 9.64652 1.93314 9.73363 1.93401 9.82085ZM9.6528 18.2497C9.50762 18.2207 9.36243 18.192 9.21724 18.1637C9.36341 18.1763 9.50946 18.1922 9.65562 18.2067C9.65269 18.2212 9.65302 18.2355 9.6528 18.2497ZM15.4203 17.0478C15.5026 17.0149 15.5845 16.9794 15.6658 16.9414C15.5983 16.996 15.532 17.052 15.4631 17.1052C15.4518 17.0839 15.437 17.0647 15.4203 17.0478ZM10.4527 3.71557C10.5379 3.71926 10.6226 3.725 10.7073 3.7315C10.7071 3.73215 10.7068 3.73269 10.7066 3.73323C10.5207 3.74244 10.3351 3.75555 10.15 3.77354C10.2511 3.75523 10.3519 3.7354 10.4527 3.71557ZM3.24436 14.3179C3.20113 14.171 3.15845 14.0238 3.11402 13.8773C3.18813 14.0522 3.26603 14.2256 3.3461 14.3982C3.31262 14.3713 3.27839 14.3447 3.24436 14.3179ZM3.7069 5.65456C3.6744 5.67797 3.64092 5.70007 3.60755 5.72239C3.59346 5.71123 3.57916 5.7005 3.56269 5.69303C3.63745 5.62585 3.70972 5.55662 3.78242 5.48749C3.75555 5.5421 3.73085 5.59811 3.7069 5.65456ZM4.14928 12.9512C4.15091 12.8769 4.15102 12.8027 4.15297 12.7283C4.15914 12.739 4.16359 12.7504 4.16987 12.7609C4.17269 12.7655 4.17637 12.7679 4.17962 12.7718C4.19739 12.8941 4.21971 13.0154 4.2455 13.1355C4.21299 13.0744 4.18146 13.0127 4.14928 12.9512ZM5.32681 14.4578C4.3403 13.429 4.52092 11.6097 4.60337 10.3143C4.68625 9.01366 4.89309 7.6604 4.68777 6.36066C4.7115 6.29706 4.74238 6.23964 4.77217 6.18124C4.91909 6.01493 5.05583 5.84114 5.17783 5.65727C6.06899 4.8724 7.72725 4.84629 8.78689 4.81064C10.2967 4.75994 11.9177 4.61237 13.4031 4.9191C15.2054 5.29127 15.546 6.91432 15.5254 8.53347C15.504 10.2091 15.5856 11.9616 15.1273 13.5883C14.5429 15.662 12.3599 15.5978 10.5668 15.5734C9.62951 15.5606 8.69327 15.4835 7.76084 15.3926C6.85039 15.304 5.98415 15.1435 5.32681 14.4578ZM8.12597 19.2851C8.5326 19.343 8.94052 19.3917 9.34954 19.4345C8.93413 19.4206 8.52544 19.3706 8.12597 19.2851Z" fill="#FFD4E4"/>
</g>
</g>
<defs>
<clipPath id="clip0_4_4178">
<rect width="20" height="20" fill="white"/>
</clipPath>
</defs>
</svg>
