<svg width="121" height="134" viewBox="0 0 121 134" fill="none" xmlns="http://www.w3.org/2000/svg">
<path d="M84.7815 23.3405C73.587 11.1188 66.5355 10.9538 58.4414 14.2569C82.3122 -4.73628 99.1863 21.2759 100.833 23.7532C102.15 25.7351 103.714 30.4974 104.125 32.8371L84.7815 23.3405Z" fill="#FDA3C4" stroke="black"/>
<ellipse cx="66.262" cy="90.6403" rx="6.9966" ry="7.0192" fill="#C4C4C4"/>
<path d="M120.5 65.0442C120.5 92.3541 98.0652 114.504 70.3771 114.504C42.689 114.504 20.2546 92.3541 20.2546 65.0442C20.2546 37.7343 42.689 15.584 70.3771 15.584C98.0652 15.584 120.5 37.7343 120.5 65.0442Z" fill="#1F1F1F" stroke="black"/>
<path d="M117.242 67.5196C117.242 93.9374 96.4461 115.328 70.8236 115.328C45.2011 115.328 24.4053 93.9374 24.4053 67.5196C24.4053 41.1017 45.2011 19.7109 70.8236 19.7109C96.4461 19.7109 117.242 41.1017 117.242 67.5196Z" fill="white" stroke="black"/>
<path d="M28.8092 67.6999L3.29224 41.2746H16.4623C17.8342 29.7136 27.3276 5.6005 54.3262 1.63672C81.3249 -2.32707 95.4827 13.1559 99.5984 22.102C91.3671 10.8712 79.9804 10.3076 74.9045 10.7205C49.2228 10.7205 41.9793 31.0899 41.5677 41.2746H54.3262L28.8092 67.6999Z" fill="#F40000" stroke="black"/>
<path d="M76.7027 95.4445C70.4627 95.4445 65.6627 94.1912 62.3027 91.6845C58.9427 89.1779 57.2627 85.3912 57.2627 80.3245C57.2627 78.2979 57.556 76.4579 58.1427 74.8045H54.3827V69.6845H61.1027C62.1694 68.6179 63.5827 67.6579 65.3427 66.8045C67.156 65.8979 69.0227 65.0979 70.9427 64.4045C72.916 63.7112 74.6494 63.1245 76.1427 62.6445C77.636 62.1112 78.596 61.7379 79.0227 61.5245H54.3827V56.4045H84.9427C85.3694 55.6579 85.6627 54.8845 85.8227 54.0845C86.036 53.2845 86.1427 52.2712 86.1427 51.0445C86.1427 48.5379 85.2894 46.5912 83.5827 45.2045C81.876 43.7645 79.2094 43.0445 75.5827 43.0445C72.9694 43.0445 70.4894 43.3912 68.1427 44.0845C65.8494 44.7779 63.796 45.5512 61.9827 46.4045L59.9827 40.0845C62.0094 39.1245 64.4894 38.3245 67.4227 37.6845C70.356 37.0445 73.2094 36.7245 75.9827 36.7245C81.3694 36.7245 85.6094 37.8445 88.7027 40.0845C91.8494 42.2712 93.4227 45.6312 93.4227 50.1645C93.4227 51.2845 93.3427 52.4045 93.1827 53.5245C93.0227 54.5912 92.7294 55.5512 92.3027 56.4045H96.7027V61.5245H89.7427C88.8894 62.3779 87.556 63.2579 85.7427 64.1645C83.9294 65.0179 82.036 65.8179 80.0627 66.5645C78.0894 67.3112 76.3027 67.9512 74.7027 68.4845C73.1027 69.0179 72.0627 69.4179 71.5827 69.6845H96.7027V74.8045H65.5827C65.156 75.6045 64.8627 76.3512 64.7027 77.0445C64.5427 77.7379 64.4627 78.6979 64.4627 79.9245C64.4627 86.1112 68.756 89.2045 77.3427 89.2045C80.3827 89.2045 83.316 88.8312 86.1427 88.0845C89.0227 87.2845 91.4227 86.4579 93.3427 85.6045V92.0845C91.5294 92.9379 89.1027 93.7112 86.0627 94.4045C83.0227 95.0979 79.9027 95.4445 76.7027 95.4445Z" fill="#F40000"/>
<path d="M62.3027 91.6845L61.7047 92.4861L62.3027 91.6845ZM58.1427 74.8045L59.0851 75.1389L59.5586 73.8045H58.1427V74.8045ZM54.3827 74.8045H53.3827V75.8045H54.3827V74.8045ZM54.3827 69.6845V68.6845H53.3827V69.6845H54.3827ZM61.1027 69.6845V70.6845H61.5169L61.8098 70.3916L61.1027 69.6845ZM65.3427 66.8045L65.779 67.7044L65.7899 67.699L65.3427 66.8045ZM70.9427 64.4045L70.6112 63.461L70.603 63.464L70.9427 64.4045ZM76.1427 62.6445L76.4487 63.5966L76.4639 63.5917L76.479 63.5863L76.1427 62.6445ZM79.0227 61.5245L79.4699 62.419L79.0227 60.5245V61.5245ZM54.3827 61.5245H53.3827V62.5245H54.3827V61.5245ZM54.3827 56.4045V55.4045H53.3827V56.4045H54.3827ZM84.9427 56.4045V57.4045H85.523L85.8109 56.9007L84.9427 56.4045ZM85.8227 54.0845L84.8565 53.8269L84.8483 53.8574L84.8421 53.8884L85.8227 54.0845ZM83.5827 45.2045L82.9378 45.9688L82.9449 45.9748L82.9521 45.9806L83.5827 45.2045ZM68.1427 44.0845L67.8593 43.1255L67.8533 43.1273L68.1427 44.0845ZM61.9827 46.4045L61.0293 46.7062L61.3742 47.7961L62.4085 47.3093L61.9827 46.4045ZM59.9827 40.0845L59.5546 39.1808L58.766 39.5543L59.0293 40.3862L59.9827 40.0845ZM67.4227 37.6845L67.6359 38.6615H67.6359L67.4227 37.6845ZM88.7027 40.0845L88.1162 40.8945L88.1241 40.9002L88.132 40.9057L88.7027 40.0845ZM93.1827 53.5245L94.1716 53.6729L94.1726 53.666L93.1827 53.5245ZM92.3027 56.4045L91.4083 55.9573L90.6847 57.4045H92.3027V56.4045ZM96.7027 56.4045H97.7027V55.4045H96.7027V56.4045ZM96.7027 61.5245V62.5245H97.7027V61.5245H96.7027ZM89.7427 61.5245V60.5245H89.3285L89.0356 60.8174L89.7427 61.5245ZM85.7427 64.1645L86.1685 65.0693L86.1793 65.0643L86.1899 65.059L85.7427 64.1645ZM74.7027 68.4845L74.3865 67.5358L74.7027 68.4845ZM71.5827 69.6845L71.097 68.8104L67.7236 70.6845H71.5827V69.6845ZM96.7027 69.6845H97.7027V68.6845H96.7027V69.6845ZM96.7027 74.8045V75.8045H97.7027V74.8045H96.7027ZM65.5827 74.8045V73.8045H64.9827L64.7003 74.3339L65.5827 74.8045ZM64.7027 77.0445L63.7283 76.8197L64.7027 77.0445ZM86.1427 88.0845L86.3981 89.0514L86.4103 89.048L86.1427 88.0845ZM93.3427 85.6045H94.3427V84.0658L92.9366 84.6907L93.3427 85.6045ZM93.3427 92.0845L93.7685 92.9893L94.3427 92.7191V92.0845H93.3427ZM86.0627 94.4045L85.8403 93.4296L86.0627 94.4045ZM76.7027 94.4445C70.5779 94.4445 66.0219 93.2115 62.9006 90.883L61.7047 92.4861C65.3035 95.1709 70.3475 96.4445 76.7027 96.4445V94.4445ZM62.9006 90.883C59.8476 88.6053 58.2627 85.1495 58.2627 80.3245H56.2627C56.2627 85.6329 58.0378 89.7504 61.7047 92.4861L62.9006 90.883ZM58.2627 80.3245C58.2627 78.3944 58.542 76.6697 59.0851 75.1389L57.2003 74.4701C56.5701 76.2461 56.2627 78.2013 56.2627 80.3245H58.2627ZM58.1427 73.8045H54.3827V75.8045H58.1427V73.8045ZM55.3827 74.8045V69.6845H53.3827V74.8045H55.3827ZM54.3827 70.6845H61.1027V68.6845H54.3827V70.6845ZM61.8098 70.3916C62.7781 69.4233 64.0912 68.5227 65.779 67.7043L64.9064 65.9047C63.0742 66.7931 61.5606 67.8124 60.3956 68.9774L61.8098 70.3916ZM65.7899 67.699C67.5681 66.8099 69.3988 66.0252 71.2823 65.3451L70.603 63.464C68.6466 64.1705 66.744 64.9859 64.8955 65.9101L65.7899 67.699ZM71.2742 65.348C73.2416 64.6567 74.9662 64.0731 76.4487 63.5966L75.8367 61.6925C74.3326 62.176 72.5904 62.7657 70.6112 63.4611L71.2742 65.348ZM76.479 63.5863C77.9585 63.0579 78.9789 62.6644 79.4699 62.419L78.5755 60.6301C78.2131 60.8113 77.3136 61.1645 75.8064 61.7028L76.479 63.5863ZM79.0227 60.5245H54.3827V62.5245H79.0227V60.5245ZM55.3827 61.5245V56.4045H53.3827V61.5245H55.3827ZM54.3827 57.4045H84.9427V55.4045H54.3827V57.4045ZM85.8109 56.9007C86.288 56.0658 86.6211 55.1916 86.8033 54.2806L84.8421 53.8884C84.7043 54.5774 84.4507 55.25 84.0744 55.9084L85.8109 56.9007ZM86.7889 54.3422C87.0326 53.4283 87.1427 52.3207 87.1427 51.0445H85.1427C85.1427 52.2217 85.0394 53.1407 84.8565 53.8269L86.7889 54.3422ZM87.1427 51.0445C87.1427 48.2842 86.1881 46.033 84.2133 44.4284L82.9521 45.9806C84.3906 47.1494 85.1427 48.7916 85.1427 51.0445H87.1427ZM84.2276 44.4402C82.2577 42.7781 79.3079 42.0445 75.5827 42.0445V44.0445C79.1109 44.0445 81.4944 44.7509 82.9378 45.9688L84.2276 44.4402ZM75.5827 42.0445C72.8799 42.0445 70.304 42.4032 67.8593 43.1255L68.426 45.0435C70.6747 44.3792 73.0588 44.0445 75.5827 44.0445V42.0445ZM67.8533 43.1273C65.522 43.8321 63.4219 44.6221 61.5569 45.4997L62.4085 47.3093C64.1701 46.4803 66.1767 45.7236 68.4321 45.0417L67.8533 43.1273ZM62.9361 46.1028L60.9361 39.7828L59.0293 40.3862L61.0293 46.7062L62.9361 46.1028ZM60.4108 40.9883C62.3502 40.0696 64.7534 39.2904 67.6359 38.6615L67.2095 36.7075C64.2253 37.3586 61.6685 38.1795 59.5546 39.1808L60.4108 40.9883ZM67.6359 38.6615C70.5049 38.0356 73.2866 37.7245 75.9827 37.7245V35.7245C73.1321 35.7245 70.2072 36.0535 67.2095 36.7075L67.6359 38.6615ZM75.9827 37.7245C81.2425 37.7245 85.2507 38.8194 88.1162 40.8945L89.2892 39.2746C85.968 36.8696 81.4962 35.7245 75.9827 35.7245V37.7245ZM88.132 40.9057C90.9579 42.8694 92.4227 45.8901 92.4227 50.1645H94.4227C94.4227 45.3723 92.7408 41.6729 89.2733 39.2633L88.132 40.9057ZM92.4227 50.1645C92.4227 51.2367 92.3461 52.3095 92.1927 53.3831L94.1726 53.666C94.3393 52.4996 94.4227 51.3323 94.4227 50.1645H92.4227ZM92.1938 53.3762C92.0473 54.3523 91.7822 55.2094 91.4083 55.9573L93.1971 56.8517C93.6765 55.893 93.998 54.8301 94.1716 53.6729L92.1938 53.3762ZM92.3027 57.4045H96.7027V55.4045H92.3027V57.4045ZM95.7027 56.4045V61.5245H97.7027V56.4045H95.7027ZM96.7027 60.5245H89.7427V62.5245H96.7027V60.5245ZM89.0356 60.8174C88.2926 61.5604 87.0687 62.3835 85.2955 63.2701L86.1899 65.059C88.0434 64.1322 89.4861 63.1953 90.4498 62.2316L89.0356 60.8174ZM85.3169 63.2597C83.5283 64.1014 81.659 64.8913 79.7088 65.6292L80.4166 67.4998C82.413 66.7444 84.3304 65.9343 86.1685 65.0693L85.3169 63.2597ZM79.7088 65.6292C77.745 66.3723 75.9712 67.0076 74.3865 67.5358L75.0189 69.4332C76.6342 68.8948 78.4337 68.2501 80.4166 67.4998L79.7088 65.6292ZM74.3865 67.5358C72.8031 68.0636 71.6723 68.4908 71.097 68.8104L72.0683 70.5587C72.4531 70.345 73.4023 69.9721 75.0189 69.4332L74.3865 67.5358ZM71.5827 70.6845H96.7027V68.6845H71.5827V70.6845ZM95.7027 69.6845V74.8045H97.7027V69.6845H95.7027ZM96.7027 73.8045H65.5827V75.8045H96.7027V73.8045ZM64.7003 74.3339C64.243 75.1914 63.9126 76.0211 63.7283 76.8197L65.6771 77.2694C65.8128 76.6813 66.069 76.0177 66.465 75.2751L64.7003 74.3339ZM63.7283 76.8197C63.5434 77.6211 63.4627 78.6682 63.4627 79.9245H65.4627C65.4627 78.7276 65.542 77.8547 65.6771 77.2694L63.7283 76.8197ZM63.4627 79.9245C63.4627 83.2773 64.644 85.9277 67.0981 87.6959C69.4916 89.4204 72.9593 90.2045 77.3427 90.2045V88.2045C73.1395 88.2045 70.1671 87.442 68.2673 86.0732C66.428 84.748 65.4627 82.7584 65.4627 79.9245H63.4627ZM77.3427 90.2045C80.4655 90.2045 83.4848 89.8209 86.3981 89.0514L85.8873 87.1177C83.1472 87.8415 80.2999 88.2045 77.3427 88.2045V90.2045ZM86.4103 89.048C89.3196 88.2399 91.7696 87.398 93.7488 86.5183L92.9366 84.6907C91.0758 85.5177 88.7257 86.3292 85.875 87.121L86.4103 89.048ZM92.3427 85.6045V92.0845H94.3427V85.6045H92.3427ZM92.9169 91.1797C91.1941 91.9904 88.8443 92.7445 85.8403 93.4296L86.285 95.3795C89.3611 94.6779 91.8646 93.8853 93.7685 92.9893L92.9169 91.1797ZM85.8403 93.4296C82.8752 94.1058 79.8298 94.4445 76.7027 94.4445V96.4445C79.9755 96.4445 83.1702 96.0899 86.285 95.3795L85.8403 93.4296Z" fill="black"/>
<path d="M0.685485 82.1656C0.59669 80.1734 2.18786 78.5098 4.18203 78.5098L71.2789 78.5101C73.0791 78.5101 74.5857 79.8758 74.762 81.6673L78.8902 123.616C79.0827 125.572 77.6276 127.303 75.6679 127.449L6.54298 132.617C4.57424 132.764 2.87344 131.254 2.78553 129.282L0.685485 82.1656Z" fill="#FDA3C4" stroke="black"/>
<path d="M2.32761 82.7348C2.24076 80.7438 3.83156 79.0821 5.82449 79.0822L71.2491 79.0852C73.0521 79.0853 74.56 80.4551 74.7327 82.2498L78.7713 124.205C78.959 126.156 77.5083 127.881 75.554 128.03L8.14575 133.181C6.1737 133.332 4.46863 131.82 4.38244 129.844L2.32761 82.7348Z" stroke="black"/>
<rect x="12.0232" y="94.0332" width="8.87755" height="9.73525" rx="2.5" fill="white" stroke="black"/>
<path d="M12.2264 112.423C12.1711 112.119 12.4018 111.838 12.7106 111.833L25.498 111.635C25.7425 111.631 25.9538 111.804 25.9976 112.045L26.534 114.992C26.5893 115.296 26.3586 115.577 26.0498 115.581L13.2624 115.78C13.0179 115.784 12.8066 115.61 12.7628 115.369L12.2264 112.423Z" fill="white" stroke="black"/>
<path d="M28.6866 112.169C28.6313 111.865 28.862 111.584 29.1708 111.579L41.9582 111.381C42.2027 111.377 42.414 111.551 42.4578 111.791L42.9942 114.738C43.0495 115.042 42.8188 115.323 42.51 115.327L29.7226 115.526C29.4781 115.53 29.2668 115.356 29.223 115.116L28.6866 112.169Z" fill="white" stroke="black"/>
<path d="M45.1468 111.913C45.0915 111.609 45.3222 111.328 45.631 111.323L58.4184 111.125C58.6629 111.121 58.8742 111.295 58.918 111.535L59.4544 114.482C59.5097 114.786 59.279 115.067 58.9702 115.072L46.1828 115.27C45.9383 115.274 45.727 115.1 45.6832 114.86L45.1468 111.913Z" fill="white" stroke="black"/>
<path d="M61.5321 111.643C61.4883 111.344 61.7172 111.075 62.0191 111.07L71.6979 110.92C71.9489 110.916 72.1639 111.099 72.2003 111.347L72.6334 114.295C72.6773 114.594 72.4483 114.863 72.1464 114.868L62.4676 115.018C62.2166 115.022 62.0017 114.839 61.9652 114.591L61.5321 111.643Z" fill="#FDA3C4" stroke="black"/>
<rect x="0.514275" y="0.485209" width="17.1089" height="2.30314" transform="matrix(0.999575 -0.0291623 0.0289749 0.99958 13.1451 122.716)" fill="#F40000" stroke="black"/>
<rect x="0.514275" y="0.485209" width="19.9856" height="2.30314" transform="matrix(0.999575 -0.0291623 0.0289749 0.99958 40.3192 121.324)" fill="#F40000" stroke="black"/>
<path d="M25.016 98.8969C25.016 99.3064 24.6856 99.6356 24.2813 99.6356C23.8771 99.6356 23.5466 99.3064 23.5466 98.8969C23.5466 98.4874 23.8771 98.1582 24.2813 98.1582C24.6856 98.1582 25.016 98.4874 25.016 98.8969Z" fill="black" stroke="black"/>
<mask id="path-18-inside-1_5_11700" fill="white">
<path d="M26.582 101.493C26.9687 101.15 27.2697 100.721 27.4607 100.24C27.6516 99.7594 27.7273 99.2402 27.6814 98.7245C27.6356 98.2089 27.4696 97.7112 27.1968 97.2718C26.924 96.8323 26.552 96.4634 26.111 96.1946L25.8151 96.6834C26.1798 96.9056 26.4874 97.2107 26.7129 97.5741C26.9385 97.9375 27.0758 98.3489 27.1137 98.7753C27.1516 99.2017 27.089 99.6311 26.9311 100.029C26.7732 100.426 26.5243 100.781 26.2046 101.065L26.582 101.493Z"/>
</mask>
<path d="M26.582 101.493C26.9687 101.15 27.2697 100.721 27.4607 100.24C27.6516 99.7594 27.7273 99.2402 27.6814 98.7245C27.6356 98.2089 27.4696 97.7112 27.1968 97.2718C26.924 96.8323 26.552 96.4634 26.111 96.1946L25.8151 96.6834C26.1798 96.9056 26.4874 97.2107 26.7129 97.5741C26.9385 97.9375 27.0758 98.3489 27.1137 98.7753C27.1516 99.2017 27.089 99.6311 26.9311 100.029C26.7732 100.426 26.5243 100.781 26.2046 101.065L26.582 101.493Z" fill="#FDA3C4" stroke="black" stroke-width="2" mask="url(#path-18-inside-1_5_11700)"/>
<mask id="path-19-inside-2_5_11700" fill="white">
<path d="M27.6954 102.05C28.1328 101.572 28.4611 101.004 28.6577 100.385C28.8543 99.767 28.9144 99.1131 28.8339 98.4691C28.7533 97.825 28.5341 97.2063 28.1913 96.6558C27.8485 96.1053 27.3904 95.6362 26.8488 95.2811L26.5457 95.7465C27.0199 96.0575 27.4211 96.4682 27.7213 96.9503C28.0215 97.4324 28.2135 97.9743 28.284 98.5383C28.3546 99.1023 28.3019 99.6749 28.1298 100.216C27.9576 100.758 27.6701 101.255 27.2871 101.674L27.6954 102.05Z"/>
</mask>
<path d="M27.6954 102.05C28.1328 101.572 28.4611 101.004 28.6577 100.385C28.8543 99.767 28.9144 99.1131 28.8339 98.4691C28.7533 97.825 28.5341 97.2063 28.1913 96.6558C27.8485 96.1053 27.3904 95.6362 26.8488 95.2811L26.5457 95.7465C27.0199 96.0575 27.4211 96.4682 27.7213 96.9503C28.0215 97.4324 28.2135 97.9743 28.284 98.5383C28.3546 99.1023 28.3019 99.6749 28.1298 100.216C27.9576 100.758 27.6701 101.255 27.2871 101.674L27.6954 102.05Z" fill="#FDA3C4" stroke="black" stroke-width="2" mask="url(#path-19-inside-2_5_11700)"/>
<mask id="path-20-inside-3_5_11700" fill="white">
<path d="M28.6882 102.938C29.2873 102.407 29.7536 101.742 30.0495 100.997C30.3454 100.251 30.4626 99.4469 30.3915 98.648C30.3205 97.8491 30.0633 97.0781 29.6407 96.3972C29.218 95.7164 28.6418 95.1447 27.9584 94.7284L27.6294 95.272C28.2278 95.6366 28.7324 96.1372 29.1026 96.7334C29.4727 97.3297 29.6979 98.0049 29.7601 98.7045C29.8223 99.4041 29.7197 100.109 29.4606 100.761C29.2015 101.414 28.7931 101.996 28.2684 102.461L28.6882 102.938Z"/>
</mask>
<path d="M28.6882 102.938C29.2873 102.407 29.7536 101.742 30.0495 100.997C30.3454 100.251 30.4626 99.4469 30.3915 98.648C30.3205 97.8491 30.0633 97.0781 29.6407 96.3972C29.218 95.7164 28.6418 95.1447 27.9584 94.7284L27.6294 95.272C28.2278 95.6366 28.7324 96.1372 29.1026 96.7334C29.4727 97.3297 29.6979 98.0049 29.7601 98.7045C29.8223 99.4041 29.7197 100.109 29.4606 100.761C29.2015 101.414 28.7931 101.996 28.2684 102.461L28.6882 102.938Z" fill="#FDA3C4" stroke="black" stroke-width="2" mask="url(#path-20-inside-3_5_11700)"/>
</svg>
