<svg width="20" height="20" viewBox="0 0 20 20" fill="none" xmlns="http://www.w3.org/2000/svg">
<path fill-rule="evenodd" clip-rule="evenodd" d="M18 9C18 4.032 13.968 0 9 0C4.032 0 0 4.032 0 9C0 13.968 4.032 18 9 18C13.968 18 18 13.968 18 9ZM16 9C16 12.867 12.867 16 9 16C5.132 16 2 12.867 2 9C2 5.132 5.132 2 9 2C12.867 2 16 5.132 16 9ZM16.6618 16.8937C16.3395 17.214 16.3379 17.735 16.6583 18.0574L18.315 19.7239C18.6353 20.0462 19.1563 20.0478 19.4786 19.7274L19.7289 19.4787C20.0512 19.1583 20.0527 18.6373 19.7323 18.315L18.0757 16.6484C17.7553 16.3261 17.2343 16.3246 16.912 16.6449L16.6618 16.8937Z" fill="#1F1F1F"/>
</svg>
