<svg width="24" height="6" viewBox="0 0 24 6" fill="none" xmlns="http://www.w3.org/2000/svg">
<path id="Vector" d="M0.00434494 5.00947C0.171637 3.62226 0.401663 2.12319 1.36359 1.0716C2.17914 0.176628 3.41291 -0.293237 4.54213 0.198997C5.81773 0.758355 6.34052 2.14557 7.00968 3.30903C7.407 4.00263 8.15981 4.9871 9.059 4.78573C9.66543 4.62911 9.91637 3.95788 10.1046 3.39852C10.4392 2.48117 10.6483 1.45196 11.3593 0.758355C12.1539 -0.00237131 13.2831 0.0871313 14.1196 0.735986C15.2488 1.58621 15.5625 3.04053 16.5035 4.06975C17.1726 4.78572 17.9882 4.71861 18.6364 3.98026C19.1592 3.35378 19.3056 2.52593 19.7029 1.80995C20.3512 0.646486 21.6477 0.377992 22.7351 1.09397C24.0107 1.96657 24.1571 3.71176 23.8852 5.14371C23.7807 5.72544 22.8815 5.5912 22.9024 5.00947C22.9024 4.33824 22.9651 3.62227 22.756 2.97341C22.4841 2.14557 21.5222 1.47433 20.8531 2.23505C20.4767 2.66016 20.3721 3.3314 20.1212 3.846C19.8702 4.38299 19.4938 4.87522 19.0547 5.25558C17.1517 6.79941 15.5415 4.8976 14.6214 3.21953C14.1196 2.30218 12.8231 0.534606 11.9239 2.01131C11.4429 2.77204 11.3383 3.75651 10.941 4.56198C9.95819 6.59805 7.84613 6.30718 6.57053 4.71861C5.75499 3.71176 5.35767 1.78757 4.06116 1.31771C2.05366 0.624109 1.3845 3.57752 1.21721 5.00947C1.07083 5.7702 -0.0792999 5.79257 0.00434494 5.00947Z" fill="#1F1F1F"/>
</svg>
