<svg width="37" height="9" viewBox="0 0 37 9" fill="none" xmlns="http://www.w3.org/2000/svg">
<path id="Vector" d="M0.00669861 7.51421C0.264606 5.4334 0.619228 3.18479 2.1022 1.6074C3.3595 0.264943 5.26158 -0.439856 7.00245 0.298496C8.969 1.13753 9.77496 3.21835 10.8066 4.96354C11.4191 6.00395 12.5797 7.48064 13.966 7.17859C14.9009 6.94366 15.2877 5.93681 15.5779 5.09778C16.0937 3.72176 16.4161 2.17794 17.5122 1.13753C18.7373 -0.00355697 20.4781 0.130697 21.7677 1.10398C23.5086 2.37931 23.9921 4.56079 25.4429 6.10462C26.4745 7.17859 27.7318 7.07792 28.7312 5.97039C29.5371 5.03067 29.7628 3.78889 30.3754 2.71492C31.3747 0.969729 33.3735 0.566987 35.0499 1.64095C37.0165 2.94985 37.2422 5.56763 36.8231 7.71557C36.6619 8.58816 35.2756 8.3868 35.3078 7.51421C35.3078 6.50736 35.4045 5.4334 35.0822 4.46012C34.6631 3.21835 33.1801 2.21149 32.1485 3.35258C31.5682 3.99025 31.407 4.99709 31.0201 5.76901C30.6333 6.57448 30.053 7.31283 29.3759 7.88337C26.4422 10.1991 23.9599 7.3464 22.5414 4.82929C21.7677 3.45327 19.7689 0.801909 18.3826 3.01696C17.6411 4.15805 17.48 5.63477 16.8674 6.84298C15.3522 9.89707 12.0961 9.46077 10.1296 7.07791C8.87227 5.56765 8.25974 2.68136 6.26095 1.97657C3.16606 0.936163 2.13443 5.36627 1.87653 7.51421C1.65086 8.6553 -0.122257 8.68886 0.00669861 7.51421Z" fill="#1F1F1F"/>
</svg>
