<svg width="159" height="44" viewBox="0 0 159 44" fill="none" xmlns="http://www.w3.org/2000/svg">
<g id="Vector 128">
<path d="M4.69799 30.892L1.68715 26.5865L0.0254427 9.36449C1.4799 6.91275 6.55703 1.86573 15.2299 1.29167C26.071 0.574083 31.0858 -0.15177 43.5442 0.0276266C56.0026 0.207023 109.525 0.387968 113.909 0.387968C118.292 0.387968 140.005 -0.150074 145.78 2.54072C150.4 4.69336 154.64 8.81954 156.183 10.6135C155.723 10.9723 155.08 12.0845 156.192 13.6632C157.303 15.2419 157.894 17.6697 158.051 18.6863C157.437 19.2842 156.21 20.6237 156.212 21.1978C156.214 21.9154 152.062 22.0948 154.141 22.9918C155.804 23.7094 156.224 25.8023 156.227 26.7591C154.615 27.6561 150.652 29.4859 147.699 29.6294C144.746 29.7729 142.164 30.4068 141.242 30.7058L141.246 32.1411C142.631 32.3802 145.124 32.9303 144.017 33.2173C142.634 33.5761 141.247 32.6792 140.095 33.2173C138.943 33.7555 137.331 34.8319 138.717 35.1907C139.143 35.5213 139.559 35.6862 139.932 35.7504C140.39 35.6644 140.885 35.5938 141.255 35.5495C141.019 35.6969 140.531 35.8533 139.932 35.7504C139.156 35.8963 138.487 36.0864 138.72 36.2671C139.089 36.5541 140.567 36.9847 141.26 37.1641L142.416 38.2404H138.725C136.695 38.2404 137.113 39.3168 137.576 39.855C137.038 39.9746 135.639 40.142 134.346 39.855C132.73 39.4962 133.424 40.0344 130.656 40.2138C128.441 40.3573 116.401 40.2736 112.633 40.2138C112.94 39.9746 113.138 39.4962 111.477 39.4962C109.401 39.4962 109.17 39.4962 106.633 39.855C104.097 40.2138 45.9585 39.4947 38.1146 39.4947C31.8395 39.4947 39.8139 38.6059 38.6604 38.6059C35.0476 39.2039 22.534 40.364 17.1813 40.2205C10.4904 40.0411 4.71797 38.2471 4.71748 38.0677C4.71709 37.9242 3.48398 36.9316 2.86747 36.4532C3.48349 36.7522 4.71504 37.1708 4.7131 36.4532C4.71115 35.7356 3.47504 33.6426 2.85724 32.6859L4.69799 30.892Z" fill="#F40000"/>
<path d="M9.10912 41.1175C8.37087 41.1175 8.34206 41.8351 8.41994 42.1939L6.92086 42.3733C6.19192 42.9712 4.87238 44.1313 5.42568 43.9878C5.97897 43.8443 7.03913 43.4496 7.50005 43.2702C7.807 43.031 9.89741 42.5526 15.8034 42.5526C23.1859 42.5526 22.4928 42.1939 23.1849 42.1939C23.877 42.1939 10.0319 41.1175 9.10912 41.1175Z" fill="#F40000"/>
</g>
</svg>
