<svg width="28" height="28" viewBox="0 0 28 28" fill="none" xmlns="http://www.w3.org/2000/svg">
<g id="bag">
<g id="Group">
<path id="Vector" d="M4.72596 10.4063C4.74942 10.114 4.88215 9.84118 5.0977 9.64227C5.31326 9.44337 5.59582 9.33295 5.88912 9.33301H22.1105C22.4038 9.33295 22.6863 9.44337 22.9019 9.64227C23.1174 9.84118 23.2502 10.114 23.2736 10.4063L24.2968 23.1463C24.3226 23.4674 24.2816 23.7903 24.1764 24.0948C24.0713 24.3992 23.9042 24.6786 23.6858 24.9153C23.4674 25.152 23.2023 25.341 22.9073 25.4702C22.6123 25.5995 22.2937 25.6663 21.9716 25.6663H6.02796C5.70587 25.6663 5.38728 25.5995 5.09227 25.4702C4.79725 25.341 4.53219 25.152 4.31377 24.9153C4.09535 24.6786 3.92831 24.3992 3.82316 24.0948C3.71801 23.7903 3.67702 23.4674 3.70279 23.1463L4.72479 10.4063H4.72596Z" stroke="#1F1F1F" stroke-width="2" stroke-linecap="round" stroke-linejoin="round"/>
<path id="Vector_2" d="M18.6668 12.833V6.99967C18.6668 5.762 18.1752 4.57501 17.3 3.69984C16.4248 2.82467 15.2378 2.33301 14.0002 2.33301C12.7625 2.33301 11.5755 2.82467 10.7003 3.69984C9.82516 4.57501 9.3335 5.762 9.3335 6.99967V12.833" stroke="#1F1F1F" stroke-width="2" stroke-linecap="round" stroke-linejoin="round"/>
</g>
</g>
</svg>
