<svg width="28" height="28" viewBox="0 0 28 28" fill="none" xmlns="http://www.w3.org/2000/svg">
<g id="menu">
<path id="Vector" d="M2.85714 2H12.1429C12.6354 2 13.1078 2.15804 13.4561 2.43934C13.8043 2.72064 14 3.10218 14 3.5C14 3.89782 13.8043 4.27936 13.4561 4.56066C13.1078 4.84196 12.6354 5 12.1429 5H2.85714C2.3646 5 1.89223 4.84196 1.54394 4.56066C1.19566 4.27936 1 3.89782 1 3.5C1 3.10218 1.19566 2.72064 1.54394 2.43934C1.89223 2.15804 2.3646 2 2.85714 2ZM15.8571 24H25.1429C25.6354 24 26.1078 24.158 26.4561 24.4393C26.8043 24.7206 27 25.1022 27 25.5C27 25.8978 26.8043 26.2794 26.4561 26.5607C26.1078 26.842 25.6354 27 25.1429 27H15.8571C15.3646 27 14.8922 26.842 14.5439 26.5607C14.1957 26.2794 14 25.8978 14 25.5C14 25.1022 14.1957 24.7206 14.5439 24.4393C14.8922 24.158 15.3646 24 15.8571 24ZM2.85714 8H25.1429C25.6354 8 26.1078 8.15804 26.4561 8.43934C26.8043 8.72064 27 9.10218 27 9.5C27 9.89782 26.8043 10.2794 26.4561 10.5607C26.1078 10.842 25.6354 11 25.1429 11H2.85714C2.3646 11 1.89223 10.842 1.54394 10.5607C1.19566 10.2794 1 9.89782 1 9.5C1 9.10218 1.19566 8.72064 1.54394 8.43934C1.89223 8.15804 2.3646 8 2.85714 8Z" fill="#1F1F1F"/>
<g id="logo">
<g id="Group">
<g id="Group 1">
<path id="Vector_2" d="M1.17955 17.6837C1.1853 17.5771 1.19104 17.4864 1.19104 17.4118C1.19679 17.2785 1.20254 17.1399 1.20828 17.0013C1.21403 16.8627 1.21403 16.6867 1.21403 16.4735C1.21403 16.2656 1.20828 16.031 1.19679 15.7857C1.1853 15.5298 1.17381 15.3486 1.16806 15.2473C1.16231 15.146 1.15082 15.0394 1.13933 14.9167C1.12784 14.7941 1.11634 14.7035 1.1106 14.6448C1.10485 14.5809 1.09336 14.5062 1.08187 14.4263L1.07037 14.309C1.06463 14.2557 1.08186 14.2077 1.12209 14.165C1.16231 14.1224 1.21978 14.1011 1.28299 14.0957C1.34619 14.0904 1.4094 14.1064 1.46112 14.1437C1.51283 14.181 1.54157 14.2237 1.54731 14.2823L1.5588 14.3996C1.5703 14.4796 1.58179 14.5489 1.58754 14.6075C1.59328 14.6662 1.60478 14.7621 1.61627 14.8848C1.62776 15.0074 1.63925 15.1247 1.645 15.2366C1.65075 15.3432 1.66224 15.5192 1.67373 15.7698C1.68522 16.031 1.69097 16.2656 1.69097 16.4841C1.69097 16.6814 1.68522 16.8573 1.67948 17.0013C1.71395 16.9693 1.73694 16.9426 1.75992 16.916C1.82313 16.8627 1.89209 16.8094 1.96679 16.756C2.04149 16.7027 2.13343 16.6441 2.2541 16.5801C2.37477 16.5215 2.47246 16.4735 2.54716 16.4468C2.64485 16.4202 2.77701 16.3988 2.94365 16.3829C3.11604 16.3722 3.24246 16.3775 3.34015 16.3988C3.42634 16.4148 3.50679 16.4362 3.58723 16.4628C3.67343 16.5001 3.76537 16.5588 3.87455 16.6388C3.97798 16.7241 4.06418 16.804 4.12164 16.8787C4.1791 16.9586 4.23082 17.0439 4.27104 17.1346C4.31701 17.2359 4.35149 17.4065 4.38022 17.657C4.4147 17.9129 4.42044 18.0942 4.40895 18.1955C4.40321 18.3021 4.38597 18.3981 4.35724 18.494C4.32276 18.59 4.28253 18.6806 4.23656 18.7659C4.19059 18.8566 4.12164 18.9525 4.03544 19.0538C3.94925 19.1551 3.8688 19.2351 3.7941 19.2884C3.7194 19.3417 3.61022 19.4057 3.46082 19.4857C3.31142 19.5603 3.19074 19.6083 3.10455 19.6349C3.0241 19.6563 2.93216 19.6776 2.81724 19.6936C2.7138 19.7096 2.62761 19.7202 2.55865 19.7256C2.50119 19.7309 2.44373 19.7362 2.39201 19.7416C2.3288 19.7469 2.24261 19.7469 2.13343 19.7416C2.01276 19.7362 1.91507 19.7202 1.84037 19.6936L1.77142 19.6669C1.70821 19.6509 1.66224 19.6136 1.63351 19.5656C1.60477 19.5123 1.60478 19.459 1.62776 19.4057C1.65075 19.3524 1.69097 19.3151 1.75418 19.2937C1.81739 19.2724 1.87485 19.2724 1.93806 19.2937L2.01851 19.3204C2.04724 19.3257 2.09321 19.3311 2.15642 19.3364C2.23686 19.3364 2.30007 19.3364 2.34604 19.3364C2.39201 19.3311 2.44948 19.3257 2.51268 19.3204C2.57015 19.3151 2.64485 19.3044 2.73104 19.2937C2.82298 19.2777 2.89768 19.2617 2.95515 19.2458C3.00686 19.2351 3.09306 19.1978 3.21373 19.1391C3.34015 19.0752 3.42634 19.0218 3.47806 18.9899C3.52403 18.9525 3.58149 18.8939 3.65044 18.8193C3.7194 18.7446 3.77112 18.6753 3.80559 18.606C3.84007 18.542 3.86306 18.4727 3.88604 18.3981C3.90328 18.3288 3.92052 18.2488 3.93776 18.1635C3.9435 18.0782 3.93201 17.9289 3.90903 17.705C3.87455 17.4811 3.84582 17.3372 3.82283 17.2732C3.7941 17.2092 3.76537 17.1452 3.72515 17.0919C3.68492 17.0439 3.62746 16.9906 3.5585 16.932C3.4838 16.884 3.43209 16.8467 3.39186 16.8307C3.34589 16.8094 3.29418 16.7934 3.24246 16.7827C3.19649 16.7774 3.11604 16.7774 2.99537 16.7827C2.8747 16.7934 2.79425 16.8094 2.74828 16.8253C2.68507 16.8413 2.60463 16.8733 2.51268 16.9266C2.42074 16.9746 2.34604 17.0226 2.29433 17.0599C2.23686 17.1026 2.17366 17.1506 2.11619 17.1932C2.07022 17.2359 1.99552 17.3318 1.89209 17.4758C1.85761 17.5131 1.82888 17.5504 1.80589 17.5824C1.74268 17.673 1.69671 17.7423 1.66798 17.7903C1.66224 17.8543 1.65649 17.9236 1.65649 17.9982C1.63925 18.2381 1.62201 18.4301 1.60477 18.574C1.59328 18.718 1.58179 18.8299 1.5703 18.9046C1.55881 18.9845 1.54731 19.0752 1.53582 19.1871C1.52433 19.3044 1.51284 19.3844 1.50709 19.427C1.50134 19.475 1.4841 19.539 1.45537 19.6189C1.44963 19.6243 1.43813 19.6296 1.43239 19.6403C1.42089 19.6509 1.40366 19.6616 1.36918 19.6883C1.3347 19.7096 1.30597 19.7309 1.27724 19.7469C1.24851 19.7629 1.21403 19.7789 1.1738 19.7895C1.13358 19.8002 1.0991 19.8055 1.07037 19.8002C1.04164 19.7949 1.01291 19.7842 0.989925 19.7576C0.96694 19.7309 0.949702 19.6989 0.938209 19.6509C0.926717 19.603 0.92097 19.5496 0.909478 19.491C0.897985 19.4323 0.892238 19.3737 0.886491 19.3257C0.880745 19.2671 0.875 19.2031 0.875 19.1391C0.875 19.0752 0.880746 18.9525 0.892238 18.7713C0.903731 18.5847 0.920969 18.4461 0.943954 18.3608C0.961193 18.2755 0.984179 18.1902 1.01291 18.1102C1.04164 18.0302 1.07037 17.9503 1.1106 17.8649C1.11634 17.7956 1.14507 17.7423 1.17955 17.6837Z" fill="#1F1F1F"/>
<path id="Vector_3" d="M7.5741 19.8877C7.52813 19.9411 7.47067 19.973 7.39596 19.9784L7.24656 19.9944C7.1144 20.005 6.9535 19.9997 6.75238 19.9677C6.55701 19.9357 6.37887 19.8824 6.21798 19.8184C6.06858 19.7545 5.94216 19.6852 5.84447 19.6212C5.74104 19.5465 5.60887 19.4293 5.45947 19.2533C5.31007 19.0827 5.20664 18.9441 5.15492 18.8375C5.09746 18.7255 5.05149 18.5336 5.01701 18.2617C4.97678 17.9898 4.96529 17.7979 4.98828 17.6806C5.01701 17.5686 5.06872 17.4194 5.14917 17.2328C5.22962 17.0462 5.32156 16.8862 5.4135 16.7529C5.51119 16.625 5.59738 16.5184 5.68357 16.4437C5.76977 16.3638 5.90193 16.2785 6.08581 16.1772C6.28119 16.0652 6.51678 15.9906 6.78686 15.9532C7.05119 15.9159 7.24082 15.9053 7.36723 15.9213C7.48791 15.9319 7.65455 15.9746 7.86716 16.0545C8.08552 16.1345 8.24641 16.2038 8.34985 16.2625C8.45328 16.3211 8.56246 16.4117 8.67738 16.5237C8.78656 16.6357 8.87276 16.7423 8.92447 16.8329C8.98194 16.9289 9.0394 17.0782 9.09111 17.2807C9.13708 17.4833 9.16007 17.6753 9.16007 17.8459C9.16007 18.0058 9.14858 18.1391 9.13134 18.2457C9.11985 18.3577 9.07388 18.5069 9.00492 18.7042C8.93022 18.9015 8.84977 19.0667 8.75783 19.1947C8.66589 19.328 8.53947 19.4506 8.37283 19.5625C8.20619 19.6798 8.07977 19.7545 7.98783 19.7864C7.90738 19.8291 7.76373 19.8611 7.5741 19.8877ZM6.41335 19.4506C6.4938 19.4026 6.5685 19.3866 6.64895 19.4079L6.8041 19.4559C6.88455 19.4826 6.97074 19.4986 7.06843 19.5039C7.16037 19.5146 7.28679 19.5092 7.45343 19.4879C7.62007 19.4666 7.72925 19.4452 7.78671 19.4239C7.84417 19.4026 7.93611 19.344 8.06253 19.2587C8.18895 19.168 8.28089 19.0774 8.34985 18.9868C8.42455 18.8908 8.48776 18.7628 8.54522 18.5976C8.60843 18.427 8.64865 18.2937 8.66589 18.2084C8.67738 18.1178 8.68313 18.0005 8.68313 17.8512C8.68313 17.7126 8.66589 17.5526 8.62567 17.3767C8.58544 17.2061 8.54522 17.0888 8.50499 17.0302C8.46477 16.9662 8.40156 16.8862 8.31537 16.7956C8.22917 16.705 8.14873 16.641 8.07977 16.5983C8.01082 16.5557 7.8844 16.5024 7.70052 16.4384C7.51664 16.3798 7.38447 16.3424 7.30402 16.3371C7.22932 16.3264 7.08567 16.3318 6.87305 16.3638C6.67193 16.3957 6.49955 16.4544 6.36164 16.529C6.21223 16.6143 6.10305 16.6783 6.04559 16.7263C5.98238 16.7849 5.90768 16.8702 5.82723 16.9822C5.74678 17.0888 5.67208 17.2221 5.60313 17.3874C5.52843 17.5473 5.4882 17.6753 5.47671 17.7606C5.46522 17.8405 5.47096 17.9951 5.49395 18.2244C5.52843 18.459 5.5629 18.6082 5.60313 18.6829C5.64335 18.7628 5.72955 18.8748 5.86171 19.0241C5.98813 19.168 6.08581 19.264 6.15477 19.3173C6.22372 19.3493 6.30992 19.3973 6.41335 19.4506Z" fill="#1F1F1F"/>
<path id="Vector_4" d="M12.3514 19.8877C12.3055 19.9411 12.248 19.973 12.1733 19.9784L12.0239 19.9944C11.8917 20.005 11.7308 19.9997 11.5297 19.9677C11.3344 19.9357 11.1562 19.8824 10.9953 19.8184C10.8459 19.7545 10.7195 19.6852 10.6218 19.6212C10.5184 19.5465 10.3862 19.4293 10.2368 19.2533C10.0874 19.0827 9.98398 18.9441 9.93226 18.8375C9.8748 18.7255 9.82883 18.5336 9.79435 18.2617C9.75413 17.9898 9.74264 17.7979 9.76562 17.6806C9.79435 17.5686 9.84607 17.4194 9.92652 17.2328C10.007 17.0462 10.0989 16.8862 10.1908 16.7529C10.2885 16.625 10.3747 16.5184 10.4609 16.4437C10.5471 16.3638 10.6793 16.2785 10.8632 16.1772C11.0585 16.0652 11.2941 15.9906 11.5642 15.9532C11.8285 15.9159 12.0182 15.9053 12.1446 15.9213C12.2652 15.9319 12.4319 15.9746 12.6445 16.0545C12.8629 16.1345 13.0238 16.2038 13.1272 16.2625C13.2306 16.3211 13.3398 16.4117 13.4547 16.5237C13.5639 16.6357 13.6501 16.7423 13.7018 16.8329C13.7593 16.9289 13.8167 17.0782 13.8685 17.2807C13.9144 17.4833 13.9374 17.6753 13.9374 17.8459C13.9374 18.0058 13.9259 18.1391 13.9087 18.2457C13.8972 18.3577 13.8512 18.5069 13.7823 18.7042C13.7076 18.9015 13.6271 19.0667 13.5352 19.1947C13.4432 19.328 13.3168 19.4506 13.1502 19.5625C12.9835 19.6798 12.8571 19.7545 12.7652 19.7864C12.6847 19.8291 12.5411 19.8611 12.3514 19.8877ZM11.1907 19.4506C11.2711 19.4026 11.3458 19.3866 11.4263 19.4079L11.5814 19.4559C11.6619 19.4826 11.7481 19.4986 11.8458 19.5039C11.9377 19.5146 12.0641 19.5092 12.2308 19.4879C12.3974 19.4666 12.5066 19.4452 12.5641 19.4239C12.6215 19.4026 12.7135 19.344 12.8399 19.2587C12.9663 19.168 13.0582 19.0774 13.1272 18.9868C13.2019 18.8908 13.2651 18.7628 13.3226 18.5976C13.3858 18.427 13.426 18.2937 13.4432 18.2084C13.4547 18.1178 13.4605 18.0005 13.4605 17.8512C13.4605 17.7126 13.4432 17.5526 13.403 17.3767C13.3628 17.2061 13.3226 17.0888 13.2823 17.0302C13.2421 16.9662 13.1789 16.8862 13.0927 16.7956C13.0065 16.705 12.9261 16.641 12.8571 16.5983C12.7882 16.5557 12.6617 16.5024 12.4779 16.4384C12.294 16.3798 12.1618 16.3424 12.0814 16.3371C12.0067 16.3264 11.863 16.3318 11.6504 16.3638C11.4493 16.3957 11.2769 16.4544 11.139 16.529C10.9896 16.6143 10.8804 16.6783 10.8229 16.7263C10.7597 16.7849 10.685 16.8702 10.6046 16.9822C10.5241 17.0888 10.4494 17.2221 10.3805 17.3874C10.3058 17.5473 10.2655 17.6753 10.2541 17.7606C10.2426 17.8405 10.2483 17.9951 10.2713 18.2244C10.3058 18.459 10.3402 18.6082 10.3805 18.6829C10.4207 18.7628 10.5069 18.8748 10.6391 19.0241C10.7655 19.168 10.8632 19.264 10.9321 19.3173C11.0011 19.3493 11.0873 19.3973 11.1907 19.4506Z" fill="#1F1F1F"/>
</g>
</g>
<g id="Group 3">
<g id="Group 2">
<path id="Vector_5" d="M15.0985 18.5607C15.0985 18.598 15.0985 18.6407 15.0985 18.678C15.1043 18.774 15.11 18.8646 15.1158 18.9606C15.1215 19.0565 15.1272 19.1418 15.1272 19.2165C15.1272 19.2964 15.1215 19.3817 15.1158 19.4724V19.6217C15.11 19.675 15.0813 19.723 15.0353 19.7603C14.9893 19.7976 14.9319 19.8189 14.8687 19.8136C14.8055 19.8083 14.748 19.7869 14.6963 19.7496C14.6446 19.707 14.6273 19.659 14.6331 19.6057V19.467C14.6388 19.3711 14.6446 19.2911 14.6446 19.2165C14.6446 19.1472 14.6388 19.0619 14.6331 18.9766C14.6273 18.8859 14.6216 18.7953 14.6158 18.694C14.6158 18.5874 14.6101 18.4061 14.5986 18.1449C14.5871 17.953 14.5814 17.7984 14.5814 17.6811C14.5756 17.6171 14.5699 17.5425 14.5641 17.4572C14.5526 17.2226 14.5469 17.052 14.5469 16.9347C14.5469 16.8174 14.5526 16.7001 14.5641 16.5882C14.5641 16.5828 14.5641 16.5722 14.5641 16.5615C14.5641 16.5508 14.5699 16.5295 14.5814 16.5028C14.5928 16.4762 14.5986 16.4495 14.6101 16.4229C14.6216 16.3962 14.6388 16.3749 14.6618 16.3536C14.6848 16.3322 14.7078 16.3163 14.7365 16.3056C14.7652 16.2949 14.794 16.2896 14.8342 16.2949C14.8744 16.3003 14.9146 16.3163 14.9606 16.3429C15.0353 16.3856 15.0755 16.4282 15.0928 16.4655C15.11 16.5029 15.11 16.5295 15.087 16.5508L15.0583 16.5775C15.0583 16.6681 15.0583 16.7747 15.0583 16.9027C15.0583 17.0306 15.0583 17.1426 15.0583 17.2492C15.0583 17.3505 15.0583 17.4572 15.0583 17.5691C15.064 17.5958 15.0698 17.6278 15.0698 17.6704C15.0755 17.7504 15.0813 17.809 15.087 17.8623C15.1732 17.6757 15.2364 17.5371 15.2824 17.4465C15.3341 17.3505 15.3916 17.2599 15.449 17.1639C15.5065 17.0626 15.6157 16.9134 15.7651 16.7161C15.9317 16.5082 16.0467 16.3749 16.1099 16.3163C16.1903 16.2576 16.2823 16.2043 16.3857 16.1563L16.5064 16.1137C16.5638 16.087 16.627 16.0817 16.696 16.103C16.7592 16.1243 16.8052 16.1563 16.8339 16.2043C16.8626 16.2523 16.8626 16.3056 16.8396 16.3642C16.8167 16.4175 16.7764 16.4602 16.719 16.4815L16.5983 16.5295C16.5408 16.5508 16.4891 16.5775 16.4489 16.6041C16.4087 16.6415 16.3167 16.7534 16.1731 16.9294C16.0294 17.1213 15.9317 17.2599 15.88 17.3452C15.8283 17.4358 15.7766 17.5211 15.7306 17.6118C15.6846 17.7024 15.6157 17.8463 15.5237 18.0436C15.4146 18.2622 15.3226 18.4061 15.2479 18.4861C15.1962 18.5127 15.1502 18.5394 15.0985 18.5607Z" fill="#1F1F1F"/>
<path id="Vector_6" d="M18.0861 19.8358C18.0344 19.8731 17.9769 19.8891 17.9137 19.8891C17.8505 19.8891 17.793 19.8624 17.7471 19.8251C17.7011 19.7825 17.6781 19.7398 17.6781 19.6865L17.6896 19.6065C17.6896 19.5532 17.6896 19.4626 17.6896 19.3346C17.6896 19.2067 17.6896 19.1001 17.6896 19.0201C17.6896 18.9455 17.6839 18.8388 17.6781 18.7056C17.6724 18.5669 17.6609 18.4017 17.6494 18.2151C17.6321 18.0231 17.6149 17.8419 17.6034 17.6713C17.5919 17.5007 17.5862 17.3674 17.5747 17.2608C17.5632 17.1541 17.5517 17.0529 17.5402 16.9409C17.5287 16.8289 17.5172 16.749 17.5115 16.7063C17.5115 16.6743 17.5057 16.637 17.4942 16.5944L17.4827 16.5197C17.4712 16.4717 17.4827 16.4238 17.523 16.3811C17.5632 16.3331 17.6149 16.3065 17.6781 16.3011C17.7413 16.2905 17.8045 16.3065 17.862 16.3385C17.9195 16.3704 17.9482 16.4131 17.9539 16.4664L17.9712 16.5304C17.9769 16.5837 17.9827 16.6317 17.9884 16.6743C17.9884 16.7117 17.9999 16.7863 18.0171 16.8982C18.0286 17.0102 18.0401 17.1222 18.0516 17.2288C18.0631 17.3354 18.0746 17.474 18.0861 17.6446C18.0918 17.8152 18.1033 17.9965 18.1148 18.1831C18.1321 18.375 18.1493 18.5403 18.1551 18.6789C18.1608 18.8175 18.1665 18.9241 18.1665 19.0041C18.1665 19.0841 18.1665 19.1907 18.1665 19.324C18.1665 19.4573 18.1665 19.5532 18.1665 19.6065L18.1551 19.6972C18.1608 19.7505 18.1378 19.7985 18.0861 19.8358Z" fill="#1F1F1F"/>
<path id="Vector_7" d="M18.7763 16.2322C18.7993 16.1789 18.8396 16.1416 18.897 16.1202C18.9545 16.0989 19.0177 16.0989 19.0866 16.1149C19.1499 16.1362 19.1958 16.1682 19.2246 16.2162L19.3222 16.4081C19.3969 16.5468 19.4716 16.7174 19.5463 16.9146C19.621 17.0959 19.6785 17.2398 19.7245 17.3358C19.7819 17.4371 19.8624 17.5757 19.9601 17.7516C20.0635 17.9276 20.1842 18.1355 20.3163 18.3647C20.4485 18.5993 20.5405 18.7486 20.5922 18.8232C20.6439 18.9032 20.6956 18.9778 20.7416 19.0471C20.7818 19.1058 20.845 19.1804 20.9369 19.2657C20.9542 19.2817 20.9772 19.2977 20.9944 19.3137C21.0231 19.2817 21.0461 19.2444 21.0749 19.2071C21.184 19.0471 21.2587 18.9298 21.2932 18.8499C21.3334 18.7539 21.3737 18.6579 21.4139 18.5513C21.4599 18.4394 21.5346 18.2421 21.638 17.9542C21.7472 17.6717 21.8276 17.4797 21.8736 17.3731C21.9196 17.2665 21.9713 17.1385 22.0287 16.9892C22.0919 16.8453 22.1379 16.744 22.1666 16.68L22.2069 16.5947C22.2241 16.5468 22.2701 16.5094 22.3275 16.4881C22.3908 16.4668 22.454 16.4668 22.5172 16.4828C22.5804 16.5041 22.6263 16.5361 22.6493 16.5894C22.6781 16.6427 22.6781 16.6907 22.6493 16.744L22.6206 16.8293C22.5919 16.8826 22.5459 16.9839 22.4827 17.1279C22.4252 17.2771 22.3735 17.3998 22.3275 17.5011C22.2873 17.6023 22.2069 17.7943 22.0977 18.0822C21.9885 18.3701 21.9081 18.5673 21.8736 18.6739C21.8276 18.7859 21.7874 18.8872 21.7472 18.9832C21.7069 19.0898 21.6265 19.2337 21.5001 19.415C21.4943 19.4256 21.4828 19.447 21.4599 19.4736C21.4426 19.5003 21.4254 19.5216 21.4139 19.5323C21.4024 19.5429 21.3852 19.5643 21.3622 19.5962C21.3392 19.6282 21.3219 19.6496 21.3105 19.6602C21.299 19.6709 21.276 19.6869 21.2472 19.7082C21.2185 19.7295 21.1898 19.7402 21.1668 19.7455C21.1438 19.7509 21.1151 19.7562 21.0806 19.7669C21.0461 19.7775 21.0116 19.7775 20.9772 19.7562C20.8565 19.7455 20.7301 19.6709 20.5922 19.5376C20.4657 19.431 20.3796 19.3403 20.3278 19.255C20.2761 19.1857 20.2244 19.1111 20.1727 19.0311C20.1152 18.9458 20.0175 18.7859 19.8854 18.5407C19.7532 18.3061 19.6383 18.1035 19.5291 17.9276C19.4257 17.7516 19.3452 17.6077 19.2935 17.5064C19.236 17.3944 19.1671 17.2398 19.0866 17.0426C19.0234 16.856 18.9545 16.7014 18.8913 16.5787L18.7821 16.3868C18.7534 16.3388 18.7534 16.2855 18.7763 16.2322Z" fill="#1F1F1F"/>
<path id="Vector_8" d="M26.968 18.7808H26.9565C26.9163 18.8395 26.8818 18.8928 26.8588 18.9408C26.8243 18.9834 26.7898 19.0314 26.7496 19.0794C26.6979 19.1434 26.583 19.2553 26.4048 19.4099C26.2267 19.5699 26.0888 19.6765 25.9911 19.7245C25.8992 19.7725 25.8072 19.8151 25.7153 19.8471C25.6233 19.8791 25.5314 19.9057 25.4395 19.9324C25.3418 19.9537 25.2269 19.9697 25.0947 19.9751C24.9625 19.9751 24.8131 19.9537 24.6522 19.9111C24.5086 19.8684 24.3994 19.8258 24.3247 19.7938C24.25 19.7618 24.1753 19.7245 24.1006 19.6765C24.0259 19.6339 23.9512 19.5699 23.8765 19.4952C23.7903 19.4046 23.7213 19.2927 23.6696 19.1487C23.6179 19.0154 23.5892 18.9088 23.5834 18.8235C23.5777 18.7435 23.5834 18.6529 23.6007 18.5409C23.6179 18.4343 23.6524 18.349 23.6869 18.2744C23.7213 18.1944 23.7903 18.0931 23.8937 17.9652C23.9972 17.8319 24.0891 17.7359 24.1695 17.6826C24.2442 17.6346 24.3189 17.5866 24.4051 17.544C24.4913 17.5013 24.6005 17.448 24.7384 17.3947C24.8878 17.3414 25.066 17.3041 25.2613 17.2934C25.4567 17.2774 25.6176 17.2828 25.7325 17.3201C25.8532 17.3574 26.0198 17.4587 26.2324 17.6186C26.2612 17.6399 26.2842 17.6613 26.3129 17.6826C26.2669 17.544 26.2324 17.432 26.2037 17.3521C26.1635 17.2561 26.106 17.1388 26.0256 16.9949C25.9509 16.8562 25.8819 16.7496 25.8187 16.6697C25.7613 16.5897 25.6923 16.5204 25.6233 16.4617C25.5659 16.4138 25.451 16.3498 25.2901 16.2751C25.1234 16.2005 24.9798 16.1525 24.8591 16.1365C24.7269 16.1152 24.6235 16.1045 24.543 16.1045C24.4569 16.0992 24.3764 16.0992 24.296 16.1152C24.2327 16.1152 24.1063 16.1472 23.9339 16.2058C23.8075 16.2538 23.7213 16.2965 23.6754 16.3231L23.6236 16.3871C23.5834 16.4297 23.5317 16.4617 23.4685 16.4724C23.4053 16.4831 23.3421 16.4724 23.2846 16.4404C23.2272 16.4084 23.1984 16.3604 23.1869 16.3071C23.1754 16.2538 23.1869 16.2005 23.2214 16.1578L23.2904 16.0832C23.3536 15.9979 23.5087 15.9179 23.7558 15.8326C23.9799 15.7527 24.1466 15.7154 24.2557 15.71C24.3534 15.6994 24.4511 15.694 24.5488 15.6994C24.658 15.6994 24.7959 15.7154 24.951 15.742C25.1177 15.7687 25.3016 15.8273 25.5084 15.9233C25.7153 16.0139 25.8704 16.0992 25.9681 16.1792C26.0601 16.2591 26.1463 16.3444 26.2267 16.4457C26.3071 16.547 26.3876 16.675 26.4738 16.8349C26.56 16.9949 26.6232 17.1281 26.6634 17.2348C26.7036 17.3414 26.7554 17.4907 26.8186 17.6933C26.8818 17.8799 26.9335 18.0131 26.968 18.0931C26.9967 18.1784 27.0197 18.2637 27.0484 18.349C27.0772 18.4343 27.0944 18.493 27.1059 18.5303C27.1404 18.5729 27.1289 18.6316 27.0772 18.7062L26.968 18.7808ZM26.5542 18.5729C26.514 18.5196 26.4795 18.4663 26.4451 18.4236C26.3991 18.365 26.3474 18.301 26.2899 18.2317C26.2324 18.1677 26.1118 18.0611 25.9279 17.9225C25.7498 17.7892 25.6348 17.7146 25.5716 17.6986C25.5257 17.6879 25.4395 17.6826 25.3073 17.6879C25.1636 17.6986 25.043 17.7252 24.9453 17.7626C24.8246 17.8052 24.7327 17.8479 24.6695 17.8852C24.6063 17.9225 24.543 17.9598 24.4798 17.9971C24.4339 18.0291 24.3707 18.0984 24.2902 18.1944C24.2098 18.2957 24.158 18.365 24.1351 18.413C24.1178 18.461 24.0948 18.5303 24.0776 18.6102C24.0661 18.6849 24.0604 18.7435 24.0661 18.7915C24.0661 18.8395 24.0833 18.9141 24.1236 19.0154C24.1638 19.1114 24.204 19.1807 24.25 19.2233C24.3017 19.2767 24.3534 19.3193 24.3994 19.346C24.4454 19.3726 24.4971 19.3993 24.5488 19.4259C24.6005 19.4526 24.6924 19.4792 24.8131 19.5112C24.9166 19.5432 25.0085 19.5592 25.0889 19.5592C25.1809 19.5539 25.2556 19.5432 25.313 19.5326C25.3763 19.5166 25.4452 19.4952 25.5199 19.4686C25.5946 19.4419 25.6636 19.4099 25.7383 19.378C25.8015 19.3406 25.9107 19.2553 26.0658 19.122C26.221 18.9834 26.3186 18.8928 26.3531 18.8555C26.3876 18.8075 26.4163 18.7595 26.4393 18.7222C26.4623 18.6955 26.4968 18.6422 26.5542 18.5729Z" fill="#1F1F1F"/>
</g>
<g id="Group_2">
<g id="Group_3">
<g id="Group_4">
<g id="Group_5">
<path id="Vector_9" d="M17.8916 15.0271C17.679 14.9418 17.5181 14.8086 17.3687 14.6433C17.317 14.5846 17.0297 14.3021 17.0872 14.2008C17.1159 14.1528 17.271 14.1795 17.3113 14.2008C17.3572 14.2221 17.4032 14.2648 17.4377 14.3021C17.4952 14.3661 17.5354 14.4407 17.5756 14.5153C17.6561 14.6699 17.7193 14.8352 17.8284 14.9738C17.8916 15.0591 18.0411 14.9792 17.9778 14.8939C17.8169 14.6806 17.7537 14.414 17.5756 14.2061C17.4434 14.0515 17.1734 13.9129 16.9837 14.0675C16.8056 14.2061 16.9722 14.4194 17.0757 14.5527C17.2711 14.8032 17.4894 15.0325 17.7997 15.1604C17.9089 15.2084 17.9951 15.0698 17.8916 15.0271Z" fill="#1F1F1F"/>
</g>
</g>
<g id="Group_6">
<g id="Group_7">
<path id="Vector_10" d="M17.094 14.3298C17.2376 14.5697 17.4215 14.7936 17.5996 15.0122C17.6686 15.0922 17.818 15.0122 17.749 14.9322C17.5652 14.7137 17.387 14.4897 17.2434 14.2498C17.1859 14.1592 17.0365 14.2392 17.094 14.3298Z" fill="#1F1F1F"/>
</g>
</g>
</g>
<g id="Group_8">
<g id="Group_9">
<g id="Group_10">
<path id="Vector_11" d="M17.8487 15.1743C18.3199 15.153 18.7796 15.009 19.2163 14.8438C19.36 14.7905 19.6645 14.6998 19.63 14.5079C19.5381 14.0228 18.1418 14.8011 17.9464 14.8704C17.843 14.9078 17.8889 15.0624 17.9924 15.025C18.205 14.9504 18.4003 14.8544 18.6015 14.7638C18.7279 14.7052 19.2508 14.4226 19.4002 14.5399C19.4577 14.5825 19.4174 14.5825 19.3485 14.6145C19.3083 14.6359 19.2623 14.6519 19.2163 14.6732C19.1071 14.7158 18.9922 14.7531 18.883 14.7958C18.5497 14.9078 18.2107 15.0037 17.8487 15.0197C17.7395 15.0197 17.7338 15.1796 17.8487 15.1743Z" fill="#1F1F1F"/>
</g>
</g>
<g id="Group_11">
<g id="Group_12">
<path id="Vector_12" d="M19.2344 14.5657C18.8666 14.7203 18.4874 14.8482 18.1081 14.9708C18.0047 15.0028 18.0506 15.1574 18.1541 15.1255C18.5506 14.9922 18.9413 14.8589 19.3263 14.7043C19.424 14.6616 19.3321 14.523 19.2344 14.5657Z" fill="#1F1F1F"/>
</g>
</g>
</g>
</g>
</g>
</g>
</g>
</svg>
