<svg width="20" height="22" viewBox="0 0 20 22" fill="none" xmlns="http://www.w3.org/2000/svg">
<path d="M2.05065 7.92C2.07076 7.6694 2.18452 7.43557 2.36928 7.26508C2.55404 7.09459 2.79624 6.99995 3.04765 7H16.9516C17.2031 6.99995 17.4453 7.09459 17.63 7.26508C17.8148 7.43557 17.9285 7.6694 17.9486 7.92L18.8256 18.84C18.8477 19.1152 18.8126 19.392 18.7225 19.6529C18.6323 19.9139 18.4892 20.1533 18.302 20.3562C18.1147 20.5592 17.8875 20.7211 17.6347 20.8319C17.3818 20.9427 17.1087 20.9999 16.8326 21H3.16665C2.89057 20.9999 2.6175 20.9427 2.36463 20.8319C2.11175 20.7211 1.88456 20.5592 1.69734 20.3562C1.51013 20.1533 1.36695 19.9139 1.27682 19.6529C1.18669 19.392 1.15156 19.1152 1.17365 18.84L2.04965 7.92H2.05065Z" stroke="#1F1F1F" stroke-width="2" stroke-linecap="round" stroke-linejoin="round"/>
<path d="M13.9998 10V5C13.9998 3.93913 13.5783 2.92172 12.8282 2.17157C12.078 1.42143 11.0606 1 9.99976 1C8.93889 1 7.92147 1.42143 7.17133 2.17157C6.42118 2.92172 5.99976 3.93913 5.99976 5V10" stroke="#1F1F1F" stroke-width="2" stroke-linecap="round" stroke-linejoin="round"/>
</svg>
