<svg width="24" height="24" viewBox="0 0 24 24" fill="none" xmlns="http://www.w3.org/2000/svg">
<path d="M2.8125 0C1.27031 0 0 1.24208 0 2.75V19.25C0 20.7579 1.27031 22 2.8125 22H12.1875C13.7297 22 15 20.7579 15 19.25V2.75C15 1.24208 13.7297 0 12.1875 0H2.8125ZM2.8125 1.83333H12.1875C12.7078 1.83333 13.125 2.24125 13.125 2.75V19.25C13.125 19.7588 12.7078 20.1667 12.1875 20.1667H2.8125C2.29219 20.1667 1.875 19.7588 1.875 19.25V2.75C1.875 2.24125 2.29219 1.83333 2.8125 1.83333ZM7.5 17.4167C7.25136 17.4167 7.0129 17.5132 6.83709 17.6852C6.66127 17.8571 6.5625 18.0902 6.5625 18.3333C6.5625 18.5764 6.66127 18.8096 6.83709 18.9815C7.0129 19.1534 7.25136 19.25 7.5 19.25C7.74864 19.25 7.9871 19.1534 8.16291 18.9815C8.33873 18.8096 8.4375 18.5764 8.4375 18.3333C8.4375 18.0902 8.33873 17.8571 8.16291 17.6852C7.9871 17.5132 7.74864 17.4167 7.5 17.4167Z" fill="#FDA3C4"/>
</svg>
