<svg width="81" height="86" viewBox="0 0 81 86" fill="none" xmlns="http://www.w3.org/2000/svg">
<path d="M79.9363 51.7351C78.2096 51.3145 71.3889 50.3877 69.3778 51.7351L68.875 44.1934C69.9526 44.5525 71.3889 45.5582 71.3889 44.6961C71.3889 43.6186 77.3211 45.0002 77.3211 45.0002C77.3211 46.9278 79.6491 48.0719 78.9307 48.9698C80.0082 48.7902 82.3715 52.3283 79.9363 51.7351Z" fill="#F40000" stroke="#1F1F1F"/>
<path d="M73.5508 30.4536C73.9818 26.1433 66.6859 24.7281 63.094 25.0873L63.8527 20.7555C64.7507 20.2167 67.0079 20.023 70.8871 21.3161C75.7362 22.9324 78.4289 26.1433 77.861 30.4536C77.2952 34.7482 73.7304 38.7148 71.3957 40.1515L69.7793 36.9189C70.8569 36.5597 73.1198 34.7638 73.5508 30.4536Z" fill="#F40000" stroke="#1F1F1F"/>
<path d="M19.8549 27.7589C30.1994 23.8797 35.9433 27.3491 41.2237 32.6079C43.2336 34.3882 42.1935 33.5778 46.0727 30.9916C49.9519 28.4055 54.5136 27.7589 56.3095 27.7589C71.3954 27.7589 72.6472 40.9249 71.9342 46.0775C71.3433 50.347 59.0034 79.4818 41.2237 78.4042C23.444 77.3267 19.1337 61.7021 15.9011 57.3918C12.6684 53.0816 6.92415 32.608 19.8549 27.7589Z" fill="#FDA3C4"/>
<path d="M11.3075 57.3918C10.1008 57.3918 9.46398 57.8103 9.29639 58.0195C9.29639 58.1871 9.4975 58.472 10.302 58.2709C11.3075 58.0195 11.3075 57.7697 11.3075 57.3918Z" fill="#FDA3C4"/>
<path d="M19.8549 27.7589C30.1994 23.8797 35.9433 27.3491 41.2237 32.6079C43.2336 34.3882 42.1935 33.5778 46.0727 30.9916C49.9519 28.4055 54.5136 27.7589 56.3095 27.7589C71.3954 27.7589 72.6472 40.9249 71.9342 46.0775C71.3433 50.347 59.0034 79.4818 41.2237 78.4042C23.444 77.3267 19.1337 61.7021 15.9011 57.3918C12.6684 53.0816 6.92415 32.608 19.8549 27.7589Z" stroke="#1F1F1F"/>
<path d="M11.3075 57.3918C10.1008 57.3918 9.46398 57.8103 9.29639 58.0195C9.29639 58.1871 9.4975 58.472 10.302 58.2709C11.3075 58.0195 11.3075 57.7697 11.3075 57.3918Z" stroke="#1F1F1F"/>
<path d="M60.3268 22.0705C54.7235 28.1048 54.4005 34.5681 55.2985 35.6457L56.5562 38.1596L59.0701 34.6401C58.0646 34.1373 60.722 28.5351 62.3381 27.0983C69.2345 19.7709 64.206 13.7747 61.3325 12.5176C63.0923 14.5287 65.9301 16.0361 60.3268 22.0705Z" fill="#F40000" stroke="#1F1F1F"/>
<path d="M52.2817 12.0145C54.9078 13.984 59.7195 17.9757 61.6951 20.3104C63.5944 18.5507 64.2812 14.3972 61.6951 12.6727C58.4624 10.517 56.3073 6.7466 56.8461 4.0527C57.3848 1.3588 58.3157 0.450571 61.1563 2.43636C63.3051 3.93856 61.1563 6.56667 59.54 8.36243C59.1808 8.90138 58.5702 9.65591 61.1563 8.36243C63.7424 7.06895 65.6461 7.82348 66.0053 8.36243C66.5441 1.89707 61.6689 0.145717 55.7685 1.35829C50.5222 2.43644 50.2705 10.5063 52.2817 12.0145Z" fill="#1F1F1F" stroke="#1F1F1F"/>
<path d="M4.58571 45.5377C7.6388 44.9989 12.6674 44.9989 8.35717 49.3091C2.96937 54.6969 -0.802085 60.0852 1.89181 63.3179C4.58571 66.5506 8.89649 67.0893 11.0516 63.3179C13.2067 59.5464 8.89703 54.6974 6.74137 56.3138C4.58571 57.9301 4.04639 63.8567 8.35717 64.3954C12.668 64.9342 16.8725 65.9554 23.8767 63.8002C30.8808 61.6451 31.7058 67.4631 31.1671 69.0795C30.6283 70.6958 21.2884 75.171 20.7496 79.4813C20.2109 83.7915 25.5987 87.0242 28.8313 83.2527C32.064 79.4813 26.6762 77.3262 25.5987 79.4813C24.7366 81.2054 26.317 81.2772 27.215 81.0976" stroke="#F40000"/>
<path d="M55.7584 39.5245C51.9102 39.0348 52.2837 35.1423 54.6808 34.1367C55.049 37.1534 58.093 35.9327 58.9909 34.1367C61.146 35.2143 60.8312 40.1701 55.7584 39.5245Z" fill="#1F1F1F"/>
<circle cx="10.2999" cy="26.3449" r="1.75696" fill="#1F1F1F" stroke="#1F1F1F"/>
<circle cx="47.1488" cy="23.9506" r="1.57756" fill="white" stroke="#1F1F1F"/>
<circle cx="13.1713" cy="75.1713" r="1.57756" fill="#FDA3C4" stroke="#1F1F1F"/>
<circle cx="66.9057" cy="69.0639" r="1.57756" fill="#FDA3C4" stroke="#1F1F1F"/>
<path d="M11.0859 27.2559L18.6289 35.3376" stroke="#1F1F1F"/>
<path d="M25.0603 53.082C25.0603 53.082 10.0509 60.0335 7.8194 59.5474C5.58794 59.0612 7.53726 57.7889 8.89696 57.3923C11.056 56.7624 20.0317 54.3392 25.0603 53.082Z" fill="white" stroke="#1F1F1F"/>
<path d="M14.2852 74.092L27.7546 63.3164" stroke="#1F1F1F"/>
<path d="M46.612 25.0625L42.4805 33.3805" stroke="#1F1F1F"/>
<path d="M56.6328 65.3281L65.7921 68.5608" stroke="#1F1F1F"/>
<ellipse cx="9.93287" cy="58.0336" rx="1.69663" ry="0.502784" transform="rotate(-17.8865 9.93287 58.0336)" fill="#1F1F1F"/>
<path d="M27.2132 81.0017C26.3152 81.1813 24.7348 81.1094 25.5968 79.3854C26.6744 77.2302 32.0622 79.3854 28.8295 83.1568C25.5968 86.9283 20.209 83.6956 20.7478 79.3854C21.2866 75.0751 30.6264 70.5999 31.1652 68.9835C31.704 67.3672 30.879 61.5492 23.8748 63.7043C16.8707 65.8594 12.6661 64.8383 8.35532 64.2995C4.04455 63.7607 4.58387 57.8342 6.73952 56.2178C7.83353 55.3975 10.2993 56.7612 10.8021 58.0181" stroke="#F40000"/>
</svg>
